<?xml version="1.0" encoding="utf-8"?>
<!-- Generator: Adobe Illustrator 21.1.0, SVG Export Plug-In . SVG Version: 6.00 Build 0)  -->
<svg version="1.1" id="Camada_1" xmlns="http://www.w3.org/2000/svg" xmlns:xlink="http://www.w3.org/1999/xlink" x="0px" y="0px"
	 viewBox="0 0 196.1 52.1" style="enable-background:new 0 0 196.1 52.1;" xml:space="preserve">
<style type="text/css">
	.st0{fill:#FFFFFF;}
	.st1{fill:#ED294D;stroke:#FFFFFF;stroke-miterlimit:10;}
</style>
<g>
	<rect x="57.8" y="0.8" class="st0" width="0.7" height="50.1"/>
</g>
<g>
	<path class="st1" d="M43.4,46.3H8.9c0,0-7,0-7-6.9v-34h34.4c0,0,7,0,7,6.9V46.3z"/>
</g>
<rect x="18.8" y="30.2" class="st0" width="2" height="10.3"/>
<rect x="22.7" y="26.4" class="st0" width="3.3" height="14.2"/>
<path class="st0" d="M16.9,16.5c0,0,3.4-3.2,9-2.2c0,0,2.5,0.4,4.4,2.1c0,0,0.3,0.3,0.5,0.1c0,0,0.3-0.2,0-0.5c0,0-1.6-2.3-4.9-3.2
	c0,0-4.5-1.6-9,0.6c0,0-2.8,1.2-4.4,4.3c0,0-2.2,0.7-3.9,1.6c0,0-0.5,0.2-0.3,0.6c0,0,0.2,0.3,0.6,0.1c0,0,1.6-0.5,3-0.9
	c0,0-1.2,3.1,0.1,6.9c0.6,1.7,1.6,3.4,3.1,4.8c0,0,0.3,0.3,0.5,0.1c0,0,0.2-0.2,0.1-0.5c0,0-1.2-1.8-1.7-4.5
	c-0.4-2.1-0.2-5.1,1.3-7.4c0,0,5.7-0.8,10.6,1c0,0,8.3,2.7,6.2,7.6c0,0-0.6,1.7-2.9,3.3c0,0-0.4,0.2-0.2,0.5c0,0,0.2,0.2,0.6,0.1
	c0,0,3.5-1.1,5-3.9c0,0,3.1-4.6-4.2-8.4c0,0-2-1.1-4.6-1.6C26,17,21.3,15.8,16.9,16.5"/>
<path class="st0" d="M119.4,37.5l0.4-1.6c-0.1,0-0.1,0-0.2,0l-0.4,1.5c0,0-0.1,0-0.1,0c-0.2,0-0.4,0.1-0.6,0.2l-4.2-3.5
	c0,0.1,0,0.2,0,0.2l4.2,3.4c-0.1,0.1-0.1,0.3-0.1,0.5c0,0.1,0,0.1,0,0.2l-7.8,2.5c-0.1-0.2-0.3-0.4-0.6-0.5l0.6-4.6h-0.2l-0.6,4.5
	c0,0,0,0,0,0c-0.3,0-0.5,0.1-0.6,0.3l-5.8-2.1c0,0,0-0.1,0-0.1c0-0.2-0.1-0.5-0.2-0.7l5-3.9v-0.3l-5.1,4c-0.2-0.2-0.5-0.4-0.8-0.4
	c-0.6,0-1.1,0.5-1.2,1.1l-8,1.4c-0.1-0.2-0.2-0.4-0.4-0.6l3-3.7c-0.1,0-0.1-0.1-0.2-0.1l-3,3.6c-0.2-0.2-0.5-0.3-0.8-0.3l-1.8-12.8
	c0.5-0.2,0.9-0.6,1-1.1l3.8,0.5v-0.2l-3.8-0.5c0,0,0-0.1,0-0.1c0-0.4-0.1-0.7-0.3-0.9l6.1-5.4c0.3,0.3,0.7,0.5,1.1,0.5
	c0.8,0,1.5-0.7,1.5-1.5c0-0.1,0-0.2,0-0.3l7.6-2c0.1,0.2,0.2,0.3,0.4,0.4l-1.6,4.1c0.1,0,0.2,0,0.2,0l1.6-4c0.1,0,0.1,0,0.2,0
	c0,0,0,0,0.1,0l0.8,3.9c0.1,0,0.1,0,0.2,0l-0.8-4c0.1,0,0.2-0.1,0.3-0.2l7.6,5.8c0.1,0,0.1-0.1,0.2-0.1l-7.6-5.9
	c0-0.1,0.1-0.1,0.1-0.2l7.1-0.5l3,5.2c0.1,0,0.1,0,0.2-0.1l-3-5.2l2.3-0.2c0.2,0.5,0.6,0.8,1.1,0.8c0.1,0,0.1,0,0.2,0l1.2,4.4
	c0.1,0,0.1,0,0.2,0l-1.2-4.4c0.4-0.2,0.8-0.6,0.8-1.1c0-0.6-0.5-1.2-1.2-1.2c-0.2,0-0.4,0.1-0.6,0.2l-7.1-7.1
	c0.2-0.2,0.3-0.5,0.3-0.8c0-0.8-0.7-1.5-1.5-1.5c-0.6,0-1.1,0.3-1.4,0.9l-9.4-2.5c0,0,0-0.1,0-0.1c0-0.8-0.7-1.5-1.5-1.5
	c-0.8,0-1.5,0.7-1.5,1.5c0,0,0,0.1,0,0.1l-9.7,2.6c-0.2-0.3-0.6-0.6-1-0.6c-0.6,0-1.2,0.5-1.2,1.2c0,0.2,0.1,0.4,0.2,0.6l-7.1,7.1
	c-0.2-0.2-0.5-0.2-0.8-0.2c-0.8,0-1.5,0.7-1.5,1.5c0,0.6,0.3,1.1,0.8,1.4l-2.6,9.7c-0.6,0-1.2,0.5-1.2,1.2c0,0.6,0.5,1.2,1.2,1.2
	l2.6,9.7c-0.5,0.2-0.9,0.8-0.9,1.4c0,0.8,0.7,1.5,1.5,1.5c0.3,0,0.6-0.1,0.8-0.3l7.1,7.1c-0.1,0.2-0.2,0.4-0.2,0.6
	c0,0.6,0.5,1.2,1.2,1.2c0.4,0,0.8-0.2,1-0.6l9.7,2.6c0,0,0,0.1,0,0.1c0,0.8,0.7,1.5,1.5,1.5c0.8,0,1.5-0.7,1.5-1.5c0,0,0-0.1,0-0.1
	l9.7-2.6c0.2,0.3,0.6,0.5,1,0.5c0.6,0,1.2-0.5,1.2-1.2c0-0.2-0.1-0.4-0.1-0.6l7.6-7.6c0.1,0,0.2,0.1,0.3,0.1c0.5,0,0.9-0.4,0.9-0.9
	C119.9,37.9,119.7,37.6,119.4,37.5 M102.1,39.7c0.4,0,0.7-0.2,1-0.5l5.8,2.1c0,0.2,0,0.3,0.1,0.4l-4.4,3.4l-4-1.5l1.4-3.9
	C102.1,39.7,102.1,39.7,102.1,39.7 M93.1,40.7c0-0.1,0-0.2,0-0.3l8-1.4c0.1,0.2,0.2,0.3,0.4,0.5l-1.4,3.9L93,40.9
	C93,40.8,93,40.8,93.1,40.7 M91,39c-0.1,0.1-0.3,0.1-0.4,0.2l-4.9-5.7c0.1-0.1,0.2-0.3,0.2-0.6c0-0.3-0.1-0.5-0.4-0.7
	c1.7-3.3,2.7-5.1,3.2-6.2c0.1,0.1,0.3,0.1,0.5,0.1L91,39z M78,37.5l1.2-0.8l1.1,1.9l-2.2-0.3c0,0,0-0.1,0-0.1
	C78.2,38,78.1,37.8,78,37.5 M78.2,38.6l2.3,0.3l1.2,2.2L78,39C78.1,38.8,78.1,38.7,78.2,38.6 M81.2,39l8.8,1.3
	c0,0.4,0.1,0.8,0.3,1.1l-2.7,3.1l-4.9-2.8L81.2,39z M90.1,40.1l-8.9-1.3l-1.4-2.4l4.7-3c0.2,0.2,0.4,0.3,0.6,0.3
	c0.2,0,0.3-0.1,0.5-0.2l4.9,5.7C90.3,39.5,90.1,39.8,90.1,40.1 M78,13.1l7.4-4.3l-0.1,3.7c-0.8,0-1.5,0.7-1.5,1.5
	c0,0.3,0.1,0.6,0.3,0.8l-2.6,2.6l-3.5-3c0.1-0.2,0.2-0.5,0.2-0.7C78.2,13.6,78.1,13.3,78,13.1 M88.4,23.4l-6.4-5.5l2.5-2.5
	c0.2,0.2,0.5,0.3,0.8,0.3c0.2,0,0.3,0,0.5-0.1l2.9,7.7C88.6,23.3,88.5,23.3,88.4,23.4 M88.6,26c-0.8,1.5-2.1,4.1-3.2,6.2
	c-0.1,0-0.2-0.1-0.3-0.1c-0.1,0-0.2,0-0.2,0L82,25.6l5.9-0.5C88,25.4,88.3,25.8,88.6,26 M81.5,18.3l6.5,5.5
	c-0.1,0.2-0.2,0.4-0.2,0.6L81.7,25l-2.1-4.8L81.5,18.3z M81.5,25l-7,0.6c0-0.1-0.1-0.1-0.1-0.2l5.1-5.1L81.5,25z M74.5,26.2l7.2-0.6
	l2.9,6.6c-0.1,0.1-0.2,0.1-0.3,0.2l-10-5.9C74.5,26.4,74.5,26.3,74.5,26.2 M90.4,23.5c-0.3-0.3-0.7-0.4-1.1-0.4
	c-0.2,0-0.3,0-0.5,0.1L86,15.5c0.3-0.1,0.6-0.4,0.7-0.7l9.5,2.4c0,0,0,0.1,0,0.1c0,0.3,0.1,0.7,0.3,0.9L90.4,23.5z M96.3,16.5
	l-9.5-2.4c0,0,0,0,0-0.1c0-0.3-0.1-0.6-0.3-0.8l4.7-4.7l3.4,2c0,0,0,0.1,0,0.1c0,0.5,0.4,0.9,0.8,0.9c0.1,0,0.1,0,0.2,0l1.4,4.3
	C96.8,15.9,96.5,16.2,96.3,16.5 M106.7,14.7l-7.6,2c-0.2-0.6-0.8-1-1.5-1c-0.1,0-0.3,0-0.4,0.1l-1.4-4.3c0.2-0.1,0.3-0.2,0.4-0.4
	l10.4,3.4c0,0.1,0,0.1,0,0.2C106.7,14.6,106.7,14.7,106.7,14.7 M106.8,14.3l-10.4-3.4c0-0.1,0-0.1,0-0.2c0,0,0,0,0,0l6-2.4l4.4,5.9
	C106.8,14.2,106.8,14.2,106.8,14.3 M107.7,13.8c0,0-0.1,0-0.1,0c-0.1,0-0.2,0-0.2,0L103,8l3.4-1.4l2.7,1.5L107.7,13.8z M108.3,14.3
	c-0.1-0.2-0.3-0.4-0.5-0.4l1.4-5.6l4,2.3l1.8,3.2L108.3,14.3z M118,13.6l-2.6,0.2l-1.7-3l4.4,2.5C118,13.4,118,13.5,118,13.6
	 M117.8,12.9l-4.3-2.5L111,6.1L117.8,12.9z M110.1,6.3c0.2,0,0.5-0.1,0.7-0.2l2.3,4l-3.8-2.2l0.5-1.7C109.9,6.3,110,6.3,110.1,6.3
	 M108.8,5.7c0.2,0.3,0.5,0.5,0.8,0.6L109.2,8l-2.5-1.4L108.8,5.7z M108.6,4.7C108.6,4.7,108.6,4.8,108.6,4.7c0,0.2,0,0.3,0,0.4
	l-2.6,1l-6.8-3.9L108.6,4.7z M99.2,2.4l6.7,3.8l-3.1,1.3L99,2.6C99.1,2.5,99.1,2.4,99.2,2.4 M97.9,3.1c0.2,0,0.5-0.1,0.7-0.1
	l3.6,4.8l-5.9,2.4C96.1,10,96,9.9,95.9,9.9L97.6,3C97.7,3.1,97.8,3.1,97.9,3.1 M97,2.8c0.1,0.1,0.2,0.1,0.4,0.2l-1.7,6.8
	c0,0-0.1,0-0.1,0c-0.2,0-0.4,0.1-0.5,0.2l-3.3-1.9L97,2.8z M91.2,7.8l-1.9-1.1l7.3-4.2L91.2,7.8z M86.8,4.8l9.7-2.6l-7.4,4.3
	l-2.3-1.4C86.8,5,86.8,4.9,86.8,4.8L86.8,4.8z M85.7,6c0.3,0,0.6-0.1,0.8-0.3l2,1.2l-2.9,1.7L85.7,6z M88.7,7l2.1,1.2l-4.6,4.6
	c-0.2-0.1-0.4-0.2-0.7-0.2l0.1-3.8L88.7,7z M85.1,5.8c0.1,0.1,0.3,0.1,0.4,0.1l-0.1,2.7l-7.5,4.3L85.1,5.8z M77.6,15l3.4,2.9
	l-1.7,1.7l-2-4.5C77.5,15.1,77.6,15.1,77.6,15 M74,25l2.6-9.7c0,0,0.1,0,0.1,0c0.2,0,0.4,0,0.5-0.1l2,4.5L74,25z M74.3,26.7l10,5.9
	c0,0.1-0.1,0.2-0.1,0.4c0,0.1,0,0.3,0.1,0.4l-4.7,3l-5.4-9.4C74.3,26.8,74.3,26.8,74.3,26.7 M76.7,36.7
	C76.6,36.7,76.6,36.7,76.7,36.7l-2.4-8.6l4.9,8.4l-1.2,0.8C77.6,37,77.2,36.7,76.7,36.7 M77.9,39.1l4,2.3l2.3,4L77.9,39.1z
	 M86.1,46.2c-0.2-0.1-0.3-0.1-0.5-0.1c-0.1,0-0.2,0-0.3,0L83,42l4.5,2.6L86.1,46.2z M86.8,47.2c0-0.2-0.1-0.5-0.2-0.6l1.4-1.6
	l8.5,4.9L86.8,47.2z M96.6,49.7l-8.5-4.9l2.6-3c0.3,0.2,0.7,0.2,1.1,0.2c0.1,0,0.2,0,0.2-0.1l4.7,7.6C96.7,49.5,96.7,49.6,96.6,49.7
	 M97.9,49c-0.2,0-0.4,0-0.5,0.1l-4.7-7.6c0.1-0.1,0.3-0.3,0.3-0.5l7.1,2.6L98.1,49C98,49,98,49,97.9,49 M98.7,49.2l1.9-5.4l3.9,1.4
	L99,49.5C98.9,49.4,98.8,49.3,98.7,49.2 M109,47.2l-9.7,2.6c0-0.1-0.1-0.1-0.1-0.2l5.5-4.3l4.3,1.6C109,47,109,47.1,109,47.2
	C109,47.2,109,47.2,109,47.2 M109.1,46.7l-4.2-1.5l4.3-3.3c0.1,0.1,0.2,0.2,0.4,0.2l0.3,4C109.4,46.2,109.2,46.4,109.1,46.7
	 M110.7,46.2c-0.1-0.1-0.2-0.1-0.4-0.1l-0.3-4c0.3-0.1,0.5-0.4,0.5-0.8c0-0.1,0-0.1,0-0.2l7.7-2.5L110.7,46.2z"/>
<path class="st0" d="M96,34V21.4c0-0.3,0.2-0.5,0.5-0.5h2.4c0.3,0,0.5,0.2,0.5,0.5V34c0,0.3-0.2,0.5-0.5,0.5h-2.4
	C96.3,34.5,96,34.3,96,34"/>
<path class="st0" d="M104.2,34.5h-2.4c-0.3,0-0.5-0.2-0.5-0.5V23.5c0-0.6,0.1-1.1,0.4-1.4c0.3-0.3,0.7-0.6,1.3-0.7
	c0.9-0.3,1.8-0.4,2.4-0.5c0.7-0.1,1.3-0.1,1.9-0.1c1,0,1.8,0.1,2.5,0.4c0.7,0.2,1.3,0.6,1.7,1c0.4,0.4,0.8,1,1,1.5
	c0.2,0.6,0.3,1.2,0.3,2V34c0,0.3-0.2,0.5-0.5,0.5H110c-0.3,0-0.5-0.2-0.5-0.5v-8c0-0.3,0-0.6-0.1-0.9c-0.1-0.3-0.2-0.5-0.4-0.7
	c-0.2-0.2-0.4-0.4-0.7-0.5c-0.3-0.1-0.7-0.2-1.1-0.2c-0.3,0-0.6,0-1,0.1c-0.3,0-0.7,0.1-1.2,0.2c-0.2,0.1-0.4,0.3-0.4,0.5V34
	C104.7,34.3,104.5,34.5,104.2,34.5"/>
<path class="st0" d="M127.7,27.6c0,1.1-0.2,2.1-0.5,2.9c-0.3,0.9-0.8,1.6-1.3,2.2c-0.6,0.6-1.3,1-2.1,1.3c-0.8,0.3-1.7,0.5-2.7,0.5
	c-2.1,0-3.7-0.6-4.8-1.8c-1.2-1.2-1.8-2.9-1.8-5.1c0-1.1,0.2-2.1,0.5-3c0.3-0.9,0.8-1.6,1.3-2.2c0.6-0.6,1.3-1,2.1-1.4
	c0.8-0.3,1.7-0.5,2.7-0.5c1,0,1.9,0.2,2.7,0.5c0.8,0.3,1.5,0.8,2.1,1.4c0.6,0.6,1,1.3,1.3,2.2C127.6,25.5,127.7,26.5,127.7,27.6
	 M124.3,27.6c0-1.4-0.3-2.5-0.8-3.3c-0.6-0.8-1.4-1.1-2.4-1.1c-1.1,0-1.8,0.4-2.4,1.1c-0.5,0.8-0.8,1.9-0.8,3.3
	c0,1.5,0.3,2.6,0.8,3.3c0.6,0.7,1.3,1.1,2.4,1.1c1,0,1.8-0.4,2.4-1.1C124,30.2,124.3,29.1,124.3,27.6"/>
<path class="st0" d="M136.9,33c-0.1,0.5-0.4,0.9-0.9,1.2c-0.5,0.3-1,0.4-1.6,0.4c-0.6,0-1.1-0.1-1.6-0.4c-0.4-0.3-0.7-0.7-0.9-1.2
	l-3.9-11.6c-0.1-0.3,0.1-0.7,0.5-0.7h2.6c0.2,0,0.4,0.1,0.5,0.4l2.4,8c0.1,0.5,0.8,0.5,1,0l2.5-8c0.1-0.2,0.3-0.4,0.5-0.4h2.6
	c0.3,0,0.6,0.3,0.5,0.7L136.9,33z"/>
<path class="st0" d="M158.3,34.5c-0.7,0-1.3-0.2-1.7-0.6c-0.4-0.4-0.6-0.9-0.6-1.6V18.2c0-0.7,0.2-1.2,0.6-1.6
	c0.4-0.4,1-0.6,1.7-0.6h6.3c1.7,0,3,0.4,4,1.2c0.9,0.8,1.4,2,1.4,3.6c0,0.6-0.1,1.2-0.3,1.8c-0.2,0.6-0.5,1.1-0.9,1.5l-0.5,0.7
	c-0.1,0.2-0.1,0.5,0,0.7l0.6,0.6c0.5,0.5,0.9,1.1,1.2,1.7c0.3,0.6,0.4,1.2,0.4,1.9c0,1.5-0.5,2.7-1.5,3.6c-1,0.8-2.5,1.3-4.4,1.3
	H158.3z M166.2,21c0-0.6-0.2-1.1-0.5-1.5c-0.3-0.4-0.9-0.6-1.7-0.6h-3.6c-0.3,0-0.5,0.2-0.5,0.5v3.9c0,0.3,0.2,0.5,0.5,0.5h4.2
	c0.2,0,0.3-0.1,0.4-0.2l0.6-0.8c0.2-0.3,0.3-0.5,0.4-0.9C166.1,21.7,166.2,21.3,166.2,21 M159.9,27.2v3.9c0,0.3,0.2,0.5,0.5,0.5h3.8
	c0.8,0,1.4-0.2,1.8-0.6c0.4-0.4,0.6-0.9,0.6-1.5c0-0.7-0.3-1.3-0.8-1.8l-0.8-0.9c-0.1-0.1-0.2-0.2-0.4-0.2h-4.3
	C160.1,26.7,159.9,26.9,159.9,27.2"/>
<path class="st0" d="M180.4,23.1c0,0.3-0.2,0.5-0.5,0.5c-0.7,0-1.3,0-1.9,0.1c-0.6,0.1-1.1,0.1-1.6,0.3c-0.2,0.1-0.4,0.3-0.4,0.5V34
	c0,0.3-0.2,0.5-0.5,0.5h-2.4c-0.3,0-0.5-0.2-0.5-0.5V23.5c0-0.6,0.1-1.1,0.4-1.4c0.3-0.3,0.7-0.6,1.3-0.7c0.4-0.1,0.9-0.2,1.3-0.3
	c0.4-0.1,0.9-0.1,1.4-0.2c0.5-0.1,1-0.1,1.5-0.1c0.4,0,0.8,0,1.3,0c0.3,0,0.5,0.2,0.5,0.5V23.1z"/>
<path class="st0" d="M193.1,34.2c-0.1,0.2-0.4,0.3-0.7,0.2l-0.5-0.3c-0.3-0.2-0.6-0.3-1-0.3c-0.3,0-0.7,0-1,0.1l-0.8,0.2
	c-0.6,0.1-1.2,0.2-1.8,0.3c-0.6,0.1-1.2,0.1-1.7,0.1c-1.5,0-2.7-0.3-3.5-1s-1.3-1.7-1.3-2.9c0-0.9,0.2-1.6,0.5-2.2
	c0.3-0.5,0.8-1,1.4-1.3c0.6-0.3,1.3-0.5,2.1-0.6c0.8-0.1,1.6-0.2,2.5-0.2h1.8c0.3,0,0.5-0.2,0.5-0.5v-0.4c0-0.8-0.2-1.3-0.7-1.6
	c-0.4-0.3-1-0.4-1.7-0.4c-0.5,0-1.2,0.1-1.9,0.2c-0.7,0.1-2.1,0.5-2.1,0.5c-0.3,0.1-0.6-0.1-0.6-0.4l-0.3-1.7c0-0.2,0.1-0.5,0.3-0.6
	c0,0,1.7-0.5,2.5-0.7c0.8-0.1,1.6-0.2,2.4-0.2c0.8,0,1.5,0.1,2.1,0.2c0.7,0.2,1.2,0.4,1.7,0.8c0.5,0.4,0.8,0.9,1.1,1.5
	c0.3,0.6,0.4,1.3,0.4,2.2v6c0,0.2,0.1,0.3,0.2,0.4l0.6,0.4c0.2,0.1,0.3,0.4,0.2,0.7L193.1,34.2z M189.6,29.2c0-0.3-0.2-0.5-0.5-0.5
	h-2.4c-0.8,0-1.4,0.1-1.8,0.4c-0.4,0.3-0.7,0.7-0.7,1.4c0,0.5,0.2,0.9,0.5,1.2c0.4,0.3,0.9,0.4,1.5,0.4c0.3,0,0.6,0,1-0.1
	s0.8-0.1,1.3-0.3l0.7-0.2c0.2-0.1,0.4-0.3,0.4-0.5V29.2z"/>
<path class="st0" d="M153.5,34.2c-0.1,0.2-0.4,0.3-0.7,0.2l-0.5-0.3c-0.3-0.2-0.6-0.3-1-0.3c-0.3,0-0.7,0-1,0.1l-0.8,0.2
	c-0.6,0.1-1.2,0.2-1.8,0.3c-0.6,0.1-1.2,0.1-1.7,0.1c-1.5,0-2.7-0.3-3.5-1c-0.8-0.7-1.3-1.7-1.3-2.9c0-0.9,0.2-1.6,0.5-2.2
	c0.3-0.5,0.8-1,1.4-1.3c0.6-0.3,1.3-0.5,2.1-0.6c0.8-0.1,1.6-0.2,2.5-0.2h1.8c0.3,0,0.5-0.2,0.5-0.5v-0.4c0-0.8-0.2-1.3-0.7-1.6
	c-0.4-0.3-1-0.4-1.7-0.4c-0.5,0-1.2,0.1-1.9,0.2c-0.7,0.1-2.1,0.5-2.1,0.5c-0.3,0.1-0.6-0.1-0.6-0.4l-0.3-1.7c0-0.2,0.1-0.5,0.3-0.6
	c0,0,1.7-0.5,2.5-0.7c0.8-0.1,1.6-0.2,2.4-0.2c0.8,0,1.5,0.1,2.1,0.2c0.7,0.2,1.2,0.4,1.7,0.8c0.5,0.4,0.8,0.9,1.1,1.5
	c0.3,0.6,0.4,1.3,0.4,2.2v6c0,0.2,0.1,0.3,0.2,0.4l0.6,0.4c0.2,0.1,0.3,0.4,0.2,0.7L153.5,34.2z M150,29.2c0-0.3-0.2-0.5-0.5-0.5
	h-2.4c-0.8,0-1.4,0.1-1.8,0.4c-0.4,0.3-0.7,0.7-0.7,1.4c0,0.5,0.2,0.9,0.5,1.2c0.4,0.3,0.9,0.4,1.5,0.4c0.3,0,0.6,0,1-0.1
	c0.4,0,0.8-0.1,1.3-0.3l0.7-0.2c0.2-0.1,0.4-0.3,0.4-0.5V29.2z"/>
<path class="st0" d="M99.9,17.2c0-1.2-1-2.2-2.2-2.2c-1.2,0-2.2,1-2.2,2.2c0,1.2,1,2.2,2.2,2.2C98.9,19.3,99.9,18.4,99.9,17.2"/>
<path class="st0" d="M149.8,43v5.6h-1.9v-10l1.9-0.3v3.3c0.6-0.2,1.2-0.3,1.7-0.3c2.1,0,2.7,1.2,2.7,2.6v4.8h-1.8V44
	c0-0.6-0.3-1.2-1.2-1.2C150.9,42.8,150.5,42.8,149.8,43"/>
<path class="st0" d="M162.1,48.8l-0.6-0.4c-0.3-0.2-0.7-0.2-1.1-0.1l-0.4,0.1c-0.6,0.1-1.4,0.3-1.9,0.3c-1.6,0-2.6-0.8-2.6-2.1
	c0-1.9,1.6-2.3,3.5-2.3h1.2v-0.5c0-0.8-0.5-1.1-1.3-1.1c-0.6,0-1.4,0.1-2.2,0.4l-0.7,0.2l-0.2-1.4l0.7-0.2c0.9-0.3,1.8-0.5,2.7-0.5
	c1.6,0,2.9,0.7,2.9,2.5v3.4l0.8,0.5L162.1,48.8z M160.2,45.5h-1.6c-0.8,0-1.4,0.3-1.4,1c0,0.6,0.4,0.9,1.1,0.9
	c0.3,0,0.8-0.1,1.2-0.2l0.6-0.1V45.5z"/>
<path class="st0" d="M170.5,44.9c0,2.3-1.3,3.8-3.5,3.8c-0.7,0-1.4-0.1-2.3-0.3c-0.6-0.2-0.9-0.5-0.9-1.2v-8.6
	c0.6-0.1,1.2-0.2,1.8-0.3v3.3c0.5-0.2,1.2-0.3,1.7-0.3C169.5,41.2,170.5,42.5,170.5,44.9 M165.6,42.9v4c0.7,0.2,1,0.2,1.3,0.2
	c1.3,0,1.8-0.9,1.8-2.2c0-1.4-0.5-2.2-1.7-2.2C166.7,42.7,166.3,42.7,165.6,42.9"/>
<path class="st0" d="M172.8,40.3c-0.7,0-1.1-0.4-1.1-1c0-0.6,0.4-1,1.1-1s1.1,0.4,1.1,1C173.8,39.9,173.4,40.3,172.8,40.3
	 M171.9,41.2h1.8v7.4h-1.8V41.2z"/>
<path class="st0" d="M180,48.4c-0.7,0.2-1.3,0.3-1.8,0.3c-1.7,0-2.5-0.9-2.5-2.7v-3.2h-1v-1.4h1v-1.6l1.8-0.3v1.9h2.2v1.4h-2.2v3.4
	c0,0.7,0.2,1.1,1,1.1c0.3,0,0.8-0.1,1.2-0.2L180,48.4z"/>
<path class="st0" d="M187.5,48.8l-0.6-0.4c-0.3-0.2-0.7-0.2-1.1-0.1l-0.4,0.1c-0.6,0.1-1.4,0.3-1.9,0.3c-1.6,0-2.6-0.8-2.6-2.1
	c0-1.9,1.6-2.3,3.5-2.3h1.2v-0.5c0-0.8-0.5-1.1-1.3-1.1c-0.6,0-1.4,0.1-2.2,0.4l-0.7,0.2l-0.2-1.4l0.7-0.2c0.9-0.3,1.8-0.5,2.7-0.5
	c1.6,0,2.9,0.7,2.9,2.5v3.4l0.8,0.5L187.5,48.8z M185.6,45.5H184c-0.8,0-1.4,0.3-1.4,1c0,0.6,0.4,0.9,1.1,0.9c0.3,0,0.8-0.1,1.2-0.2
	l0.6-0.1V45.5z"/>
<path class="st0" d="M193.9,48.4c-0.7,0.2-1.3,0.3-1.8,0.3c-1.7,0-2.5-0.9-2.5-2.7v-3.2h-1v-1.4h1v-1.6l1.8-0.3v1.9h2.2v1.4h-2.2
	v3.4c0,0.7,0.2,1.1,1,1.1c0.3,0,0.8-0.1,1.2-0.2L193.9,48.4z"/>
</svg>
